<?xml version="1.0" standalone="no"?>
<!DOCTYPE svg PUBLIC "-//W3C//DTD SVG 20010904//EN"
 "http://www.w3.org/TR/2001/REC-SVG-20010904/DTD/svg10.dtd">
<svg version="1.0" xmlns="http://www.w3.org/2000/svg"
 width="1240.000000pt" height="799.000000pt" viewBox="0 0 1240.000000 799.000000"
 preserveAspectRatio="xMidYMid meet">

<g transform="translate(0.000000,799.000000) scale(0.100000,-0.100000)"
fill="#000000" stroke="none">
<path d="M730 6295 c-337 -68 -587 -328 -639 -665 -9 -56 -11 -491 -9 -1680 3
-1465 5 -1610 20 -1660 33 -109 60 -170 108 -243 113 -174 269 -285 485 -345
56 -16 455 -17 5540 -17 5085 0 5484 1 5540 17 216 60 372 171 485 345 50 76
79 142 108 248 16 55 17 200 17 1700 0 1500 -1 1645 -17 1700 -60 216 -171
372 -345 485 -73 48 -133 75 -243 108 -51 16 -438 17 -5520 19 -4484 1 -5477
-1 -5530 -12z m11022 -422 c93 -44 151 -100 196 -191 l37 -76 0 -1611 0 -1611
-37 -76 c-45 -91 -103 -147 -196 -191 l-67 -32 -5450 0 -5450 0 -67 32 c-93
44 -151 100 -196 191 l-37 76 0 1610 0 1611 32 67 c17 37 50 87 72 111 44 48
135 101 197 116 23 5 2220 8 5469 8 l5430 -2 67 -32z"/>
<path d="M2970 5094 c-180 -48 -297 -171 -336 -352 -7 -37 -14 -112 -14 -168
l0 -100 -100 -24 -100 -24 0 -73 0 -73 100 0 100 0 0 -570 0 -570 130 0 130 0
0 570 0 570 165 0 165 0 0 100 0 100 -166 0 -166 0 4 138 c3 119 6 143 26 184
38 77 69 92 188 96 56 2 118 -1 138 -6 l36 -10 0 103 0 103 -50 11 c-70 15
-184 13 -250 -5z"/>
<path d="M1880 4759 l0 -311 -27 6 c-200 43 -358 26 -515 -56 -93 -48 -187
-137 -241 -229 -102 -173 -132 -445 -71 -649 75 -252 272 -391 534 -377 115 6
182 29 265 92 l60 45 6 -46 c4 -34 13 -53 33 -70 24 -22 37 -24 122 -24 l94 0
0 965 0 965 -130 0 -130 0 0 -311z m-75 -493 c80 -34 75 -3 75 -435 l0 -387
-52 -32 c-102 -61 -206 -83 -286 -62 -37 11 -62 29 -122 89 -41 42 -94 109
-117 149 l-43 72 0 119 c0 183 37 305 122 397 82 89 155 116 294 110 52 -2
107 -11 129 -20z"/>
<path d="M4680 4105 l0 -965 130 0 130 0 0 965 0 965 -130 0 -130 0 0 -965z"/>
<path d="M3918 4469 c-201 -29 -363 -146 -447 -323 -101 -211 -101 -497 0
-704 72 -147 230 -265 391 -292 157 -27 368 8 481 79 26 17 47 33 47 35 0 3
-12 36 -26 75 l-26 70 -28 -14 c-39 -20 -163 -52 -232 -60 -117 -13 -244 30
-313 107 -43 47 -88 136 -106 208 -21 87 -17 261 9 345 64 211 232 311 462
276 41 -7 103 -25 137 -40 l61 -29 20 101 19 102 -21 11 c-38 21 -252 64 -312
63 -33 -1 -85 -5 -116 -10z"/>
<path d="M5753 4465 c-177 -32 -326 -149 -400 -314 -50 -111 -66 -211 -60
-376 5 -169 19 -232 74 -345 115 -236 377 -336 705 -270 105 22 209 59 239 86
16 15 16 19 -3 77 -11 34 -24 65 -28 70 -3 4 -26 0 -51 -8 -114 -41 -268 -60
-364 -46 -193 30 -302 154 -322 364 l-6 67 410 0 c365 0 412 2 417 16 13 34 6
290 -9 349 -46 175 -172 291 -358 329 -89 19 -146 19 -244 1z m242 -194 c49
-23 89 -64 109 -113 20 -46 36 -155 29 -191 l-5 -27 -291 0 -290 0 6 48 c17
141 104 258 217 293 51 15 183 10 225 -10z"/>
<path d="M7010 4465 c-108 -17 -316 -83 -348 -110 -4 -3 48 -137 57 -147 3 -4
36 4 73 17 115 42 219 58 342 53 190 -8 230 -45 231 -218 l0 -95 -100 -6
c-348 -21 -555 -118 -638 -296 -31 -68 -31 -235 1 -306 98 -217 397 -281 669
-144 28 15 54 31 58 37 12 20 23 9 30 -30 11 -65 39 -80 152 -80 l95 0 -4 518
c-4 496 -5 520 -26 582 -35 108 -94 152 -277 209 -111 35 -173 38 -315 16z
m360 -854 l0 -190 -62 -30 c-35 -16 -98 -38 -141 -47 -171 -39 -294 22 -312
155 -21 157 101 257 358 290 34 5 83 9 110 10 l47 1 0 -189z"/>
<path d="M8020 3810 l0 -670 130 0 130 0 0 495 0 495 61 40 c84 54 161 82 246
88 104 7 158 -4 198 -40 66 -57 68 -75 73 -605 l4 -473 124 0 125 0 -4 518
c-4 563 -4 563 -63 672 -47 86 -126 131 -255 145 -126 13 -311 -32 -466 -115
l-73 -39 0 79 0 80 -115 0 -115 0 0 -670z"/>
<path d="M9893 4465 c-177 -32 -326 -149 -400 -314 -50 -111 -66 -211 -60
-376 5 -169 19 -232 74 -345 115 -236 377 -336 705 -270 105 22 209 59 239 86
16 15 16 19 -3 77 -11 34 -24 65 -28 70 -3 4 -26 0 -51 -8 -114 -41 -268 -60
-364 -46 -193 30 -302 154 -322 364 l-6 67 410 0 c365 0 412 2 417 16 13 34 6
290 -9 349 -46 175 -172 291 -358 329 -89 19 -146 19 -244 1z m242 -194 c49
-23 89 -64 109 -113 20 -46 36 -155 29 -191 l-5 -27 -291 0 -290 0 6 48 c17
141 104 258 217 293 51 15 183 10 225 -10z"/>
<path d="M10830 3810 l0 -670 125 0 125 0 0 495 0 495 43 31 c79 59 144 83
237 87 68 3 96 0 138 -16 l52 -20 0 135 0 136 -107 -5 c-82 -5 -124 -12 -175
-31 -71 -27 -163 -82 -188 -111 -13 -17 -14 -17 -21 1 -4 10 -8 36 -8 58 -2
86 -1 85 -117 85 l-104 0 0 -670z"/>
</g>
</svg>
